<svg width="50" height="55" viewBox="0 0 50 55" fill="none" xmlns="http://www.w3.org/2000/svg">
<path d="M9.375 48.125C9.375 48.125 6.25 48.125 6.25 44.6875C6.25 41.25 9.375 29.7 25 29.7C40.625 29.7 43.75 41.25 43.75 44.6875C43.75 48.125 40.625 48.125 40.625 48.125H25H9.375ZM25 27.5C27.4864 27.5 29.871 26.4135 31.6291 24.4795C33.3873 22.5456 34.375 19.9225 34.375 17.1875C34.375 14.4525 33.3873 11.8294 31.6291 9.89546C29.871 7.96149 27.4864 6.875 25 6.875C22.5136 6.875 20.129 7.96149 18.3709 9.89546C16.6127 11.8294 15.625 14.4525 15.625 17.1875C15.625 19.9225 16.6127 22.5456 18.3709 24.4795C20.129 26.4135 22.5136 27.5 25 27.5Z" fill="white"/>
</svg>
