<svg width="82" height="88" viewBox="0 0 82 88" fill="white" xmlns="http://www.w3.org/2000/svg">
<path d="M31.5 84.875V62.9688C31.5 61.4375 33.0625 59.875 34.625 59.875H47.125C48.6875 59.875 50.25 61.4375 50.25 63V84.875C50.25 85.7038 50.5792 86.4987 51.1653 87.0847C51.7513 87.6708 52.5462 88 53.375 88H78.375C79.2038 88 79.9987 87.6708 80.5847 87.0847C81.1708 86.4987 81.5 85.7038 81.5 84.875V41.125C81.5007 40.7144 81.4205 40.3076 81.2639 39.928C81.1074 39.5483 80.8775 39.2033 80.5875 38.9125L72.125 30.4563L62.5 25L59.625 24.5C59.625 23.6712 57.336 22.5861 56.75 22C56.1639 21.4139 55.3288 17 54.5 17L52 16C51.1712 16 46.961 19.164 46.375 19.7501C45.7889 20.3361 72.125 30.4563 72.125 30.4563L59.625 17.9563L43.0875 1.41253C42.7972 1.12151 42.4524 0.890619 42.0727 0.733079C41.693 0.575538 41.286 0.494446 40.875 0.494446C40.464 0.494446 40.0569 0.575538 39.6773 0.733079C39.2976 0.890619 38.9528 1.12151 38.6625 1.41253L1.1625 38.9125C0.872488 39.2033 0.642625 39.5483 0.486052 39.928C0.329479 40.3076 0.249266 40.7144 0.249999 41.125V84.875C0.249999 85.7038 0.57924 86.4987 1.16529 87.0847C1.75134 87.6708 2.5462 88 3.375 88H28.375C29.2038 88 29.9987 87.6708 30.5847 87.0847C31.1708 86.4987 31.5 85.7038 31.5 84.875Z" fill=""/>
</svg>
