<svg width="30" height="30" viewBox="0 0 100 91" fill="none" xmlns="http://www.w3.org/2000/svg">
<path fill-rule="evenodd" clip-rule="evenodd" d="M33.0538 3.34632C34.3573 2.95801 35.8669 2.89343 37.2505 3.1668C38.6341 3.44017 39.7784 4.02909 40.4316 4.80401L73.4174 44.0244C73.8005 44.4789 74 44.9803 74 45.4886C74 45.997 73.8005 46.4983 73.4174 46.9528L40.4316 86.1732C40.1116 86.5603 39.6658 86.906 39.1201 87.1902C38.5743 87.4744 37.9393 87.6916 37.2517 87.8292C36.564 87.9668 35.8374 88.0221 35.1136 87.992C34.3899 87.9619 33.6833 87.8469 33.0346 87.6536C32.386 87.4604 31.8081 87.1927 31.3342 86.8661C30.8604 86.5394 30.5 86.1602 30.2739 85.7504C30.0477 85.3405 29.9603 84.9081 30.0166 84.4781C30.0729 84.048 30.2718 83.6289 30.6018 83.2448L62.3452 45.4886L30.6018 7.73246C29.9487 6.95752 29.84 6.06006 30.2999 5.23751C30.7597 4.41495 31.7503 3.73467 33.0538 3.34632Z" fill="white"/>
</svg>

