<svg width="30" height="30" viewBox="0 0 100 91" fill="none" xmlns="http://www.w3.org/2000/svg">
<path fill-rule="evenodd" clip-rule="evenodd" d="M66.9462 3.34632C65.6427 2.95801 64.1331 2.89343 62.7495 3.1668C61.3659 3.44017 60.2216 4.02909 59.5684 4.80401L26.5826 44.0244C26.1995 44.4789 26 44.9803 26 45.4886C26 45.997 26.1995 46.4983 26.5826 46.9528L59.5684 86.1732C59.8884 86.5603 60.3342 86.906 60.8799 87.1902C61.4257 87.4744 62.0607 87.6916 62.7483 87.8292C63.436 87.9668 64.1626 88.0221 64.8864 87.992C65.6101 87.9619 66.3167 87.8469 66.9654 87.6536C67.614 87.4604 68.1919 87.1927 68.6658 86.8661C69.1396 86.5394 69.5 86.1602 69.7261 85.7504C69.9523 85.3405 70.0397 84.9081 69.9834 84.4781C69.9271 84.048 69.7282 83.6289 69.3982 83.2448L37.6548 45.4886L69.3982 7.73246C70.0513 6.95752 70.16 6.06006 69.7001 5.23751C69.2403 4.41495 68.2497 3.73467 66.9462 3.34632Z" fill="white"/>
</svg>
