 <svg  width="14"
                height="14"
                viewBox="0 0 14 14"
                fill="none"
                xmlns="http://www.w3.org/2000/svg"
              >
                <path
                  d="M8.40481 0.0504323C8.40481 0.0504323 6.42109 0.0503931 5.59549 0.0504329L5.49538 0.390077C5.23162 1.28495 4.2095 1.70832 3.39023 1.26206L3.07928 1.09268C3.07928 1.09268 1.67657 2.49539 1.09279 3.07918L1.26216 3.39013C1.70843 4.2094 1.28505 5.23152 0.390182 5.49528L0.0505371 5.59539C0.0506143 6.42098 0.0505375 8.40471 0.0505375 8.40471L0.390182 8.50482C1.28505 8.76858 1.70842 9.79069 1.26216 10.61L1.09279 10.9209C1.67657 11.5047 3.07928 12.9074 3.07928 12.9074L3.39023 12.738C4.2095 12.2918 5.23162 12.7151 5.49538 13.61L5.59549 13.9497H8.40481L8.50492 13.61C8.76868 12.7151 9.7908 12.2918 10.6101 12.738L10.921 12.9074C10.921 12.9074 12.3237 11.5047 12.9075 10.9209L12.7381 10.61C12.2919 9.79069 12.7153 8.76858 13.6101 8.50482L13.9498 8.40471C13.9498 7.5791 13.9498 5.59539 13.9498 5.59539L13.6101 5.49528C12.7153 5.23152 12.2919 4.2094 12.7381 3.39013L12.9075 3.07917C12.3237 2.49539 10.921 1.09269 10.921 1.09269L10.6101 1.26206C9.7908 1.70832 8.76868 1.28495 8.50492 0.390077L8.40481 0.0504323ZM7.00015 9.92886C5.38261 9.92886 4.07134 8.61759 4.07134 7.00005C4.07134 5.38251 5.38261 4.07123 7.00015 4.07123C8.61769 4.07123 9.92897 5.38251 9.92897 7.00005C9.92897 8.61759 8.61769 9.92886 7.00015 9.92886Z"
                  fill="white"
                />
              </svg>